<svg
    xmlns="http://www.w3.org/2000/svg"
    width="200"
    height="200"
    viewBox="0 0 64 64"
>
    <!-- Cat's face shape -->
    <path
        d="M32 8
           Q16 8 12 20
           Q8 32 16 48
           Q32 56 48 48
           Q56 32 52 20
           Q48 8 32 8"
        fill="none"
        stroke="#000"
        stroke-width="2"
    />

    <!-- Cat's eyes -->
    <circle cx="24" cy="28" r="6" fill="#000"/>
    <circle cx="40" cy="28" r="6" fill="#000"/>

    <!-- Cat's nose -->
    <polygon points="30,34 34,34 32,38" fill="#000"/>

    <!-- Cat's mouth -->
    <path d="M30,40 Q32,42 34,40" stroke="#000" stroke-width="2" fill="none"/>
    <path d="M32,38 Q32,44 28,46" stroke="#000" stroke-width="2" fill="none"/>
    <path d="M32,38 Q32,44 36,46" stroke="#000" stroke-width="2" fill="none"/>

    <!-- Cat's whiskers -->
    <path d="M18,34 Q10,34 4,36" stroke="#000" stroke-width="2" fill="none"/>
    <path d="M18,38 Q10,38 4,40" stroke="#000" stroke-width="2" fill="none"/>
    <path d="M46,34 Q54,34 60,36" stroke="#000" stroke-width="2" fill="none"/>
    <path d="M46,38 Q54,38 60,40" stroke="#000" stroke-width="2" fill="none"/>

    <!-- Cat's ears -->
    <path
        d="M16 16
           L10 4
           L4 20
           Z"
        fill="none"
        stroke="#000"
        stroke-width="2"
    />
    <path
        d="M48 16
           L54 4
           L60 20
           Z"
        fill="none"
        stroke="#000"
        stroke-width="2"
    />
</svg>
